<?xml version="1.0" encoding="UTF-8" standalone="no"?>
<svg
   viewBox="0 0 576 512"
   version="1.1"
   id="svg834"
   sodipodi:docname="Termite-Home.svg"
   inkscape:version="1.1.2 (b8e25be833, 2022-02-05)"
   xmlns:inkscape="http://www.inkscape.org/namespaces/inkscape"
   xmlns:sodipodi="http://sodipodi.sourceforge.net/DTD/sodipodi-0.dtd"
   xmlns="http://www.w3.org/2000/svg"
   xmlns:svg="http://www.w3.org/2000/svg">
  <defs
     id="defs838" />
  <sodipodi:namedview
     id="namedview836"
     pagecolor="#505050"
     bordercolor="#ffffff"
     borderopacity="1"
     inkscape:pageshadow="0"
     inkscape:pageopacity="0"
     inkscape:pagecheckerboard="1"
     showgrid="false"
     inkscape:zoom="0.828125"
     inkscape:cx="371.32075"
     inkscape:cy="207.69811"
     inkscape:window-width="1858"
     inkscape:window-height="1057"
     inkscape:window-x="54"
     inkscape:window-y="-8"
     inkscape:window-maximized="1"
     inkscape:current-layer="svg834" />
  <!--! Font Awesome Pro 6.1.1 by @fontawesome - https://fontawesome.com License - https://fontawesome.com/license (Commercial License) Copyright 2022 Fonticons, Inc. -->
  <path
     id="path832"
     inkscape:transform-center-x="7.245283"
     inkscape:transform-center-y="-206.49057"
     d="M 288.40039 0 C 281.40039 1.1842379e-15 273.40039 1.001625 266.40039 8.015625 L 10.009766 231.5 C 3.0037656 238.5 0 246.5 0 255.5 C 0 273.5 14.020781 287.59961 32.050781 287.59961 L 64.089844 287.59961 L 64.089844 357.19922 C 64.029844 358.09922 64 359.1 64 360 L 64 472 C 64 494.1 81.91 512 104 512 L 120 512 C 120.60032 512 121.20046 511.93792 121.80078 511.90039 L 125.84961 511.90039 C 126.59961 511.93789 127.34961 512 128.09961 512 L 184 512 C 184.66458 512 185.31214 511.93239 185.96875 511.90039 L 390.03125 511.90039 C 390.68786 511.93239 391.33542 512 392 512 L 448.5 512 C 448.69926 512 448.8984 511.92936 449.09766 511.90039 L 452.69922 511.90039 C 453.79922 511.10039 454.9 512 456 512 L 472 512 C 494.1 512 512 494.1 512 472 L 512 455.80078 C 512.3 453.10078 512.5 450.49922 512.5 447.69922 L 511.80078 287.59961 L 543.80078 287.59961 C 560.80078 287.59961 575.80078 273.5 575.80078 255.5 C 576.90078 246.5 572.80078 238.5 564.80078 231.5 L 309.5 7.0136719 C 303.4 2.0036719 295.40039 0 288.40039 0 z "
     style="stroke-width:8;stroke-miterlimit:4;stroke-dasharray:none;stroke:#000000;stroke-opacity:1;fill:none" />
  <path
     d="M 352.00187,456.33408 323.3615,417.50086 c -2.32704,-3.0512 -3.58005,-7.00387 -3.58005,-11.16455 V 367.91915 L 304.74526,346.0061 v 43.75673 c 0,12.20474 -7.99544,22.19042 -19.09359,22.19042 -10.02413,0 -19.09358,-9.98568 -19.09358,-22.19042 V 346.0061 l -13.96218,21.91305 v 38.41716 c 0,4.16068 -1.25301,8.11335 -3.58005,11.16455 l -28.64038,38.83322 c -5.13139,6.93449 -14.08151,7.62794 -19.92893,1.45625 -5.8474,-6.17172 -6.38441,-16.85085 -1.19334,-23.78535 l 25.06032,-34.04844 v -37.93172 c 0,-3.81398 1.07401,-7.48926 3.10272,-10.47111 l 39.14184,-59.9141 v -0.20805 l -79.05937,84.46226 c -34.02238,41.46835 -92.24569,12.06605 -92.24588,-46.59987 0,-33.21626 20.29887,-61.23167 47.34611,-65.32302 l 91.26138,-16.57347 -24.34432,-28.36212 c -4.65407,-5.40892 -5.60873,-13.93836 -2.32704,-20.66483 l 14.26052,-28.94462 -22.79296,-35.28276 c -4.77339,-7.37831 -3.63972,-17.97424 2.50603,-23.67023 6.20542,-5.69739 15.0362,-4.33616 19.8096,3.03938 l 28.64036,44.31912 c 3.5204,5.45745 3.93806,12.93285 1.01437,18.90346 l -13.48486,27.32195 29.41606,34.88055 v -26.4898 c 0,-10.3324 6.62308,-19.00055 14.32019,-21.49696 v -39.64456 c 0,-3.06507 2.68503,-5.54762 4.77339,-5.54762 3.16237,0 4.77339,2.48255 4.77339,5.54762 v 39.64456 c 8.77112,2.49641 14.3202,11.16456 14.3202,21.49696 v 26.4898 l 30.49006,-34.88055 -13.48484,-27.32195 c -2.92371,-5.97061 -2.50603,-13.44601 1.01434,-18.90346 l 28.64038,-44.31912 c 4.7734,-7.37554 13.60418,-8.73608 19.80959,-3.03869 6.14575,5.6953 7.27943,16.29818 2.50603,23.66954 l -22.79296,35.28276 14.26052,28.94462 c 3.28171,6.72647 2.32703,15.25591 -2.32702,20.66483 l -24.34433,28.36212 91.23153,16.57347 c 26.55202,4.09135 47.37595,32.10676 47.37595,65.32302 0,58.66592 -58.23543,88.06822 -92.24587,46.59987 l -80.13338,-84.46226 v 0.20805 l 40.21586,59.9141 c 2.02868,2.98185 3.1027,6.65713 3.1027,10.47111 v 37.93172 l 25.06033,34.04844 c 5.19106,6.9345 4.65406,17.61363 -1.19335,23.78535 -5.8474,6.17169 -14.79752,5.47824 -19.92893,-1.45625 z"
     id="path1048"
     style="fill:none;stroke:#000000;stroke-width:14.9464;stroke-miterlimit:4;stroke-dasharray:none;stroke-opacity:1" />
</svg>
